<svg width="270" height="195" viewBox="0 0 270 195" fill="none" xmlns="http://www.w3.org/2000/svg">
<path d="M3.31747 30H9.46804V17.983H21.9538V30H28.0902V0.90909H21.9538V12.9119H9.46804V0.90909H3.31747V30ZM42.9908 30.4261C48.3885 30.4261 52.0249 27.7983 52.8771 23.75L47.2805 23.3807C46.6697 25.0426 45.1072 25.9091 43.0902 25.9091C40.0646 25.9091 38.147 23.9062 38.147 20.6534V20.6392H53.005V18.9773C53.005 11.5625 48.5163 7.89773 42.7493 7.89773C36.3288 7.89773 32.1669 12.4574 32.1669 19.1903C32.1669 26.108 36.272 30.4261 42.9908 30.4261ZM38.147 16.8892C38.2749 14.4034 40.1641 12.4148 42.8487 12.4148C45.4766 12.4148 47.2947 14.2898 47.3089 16.8892H38.147ZM60.3381 38.1392C64.8409 38.1392 67.2415 35.8523 68.4631 32.358L76.9432 8.21023L70.5369 8.18182L65.9773 24.2045H65.75L61.233 8.18182H54.8693L62.696 30.625L62.3409 31.5483C61.4886 33.5227 60.0256 33.6648 57.8949 32.9972L56.5312 37.5284C57.3977 37.8835 58.804 38.1392 60.3381 38.1392ZM100.903 8.18182H96.7976V2.95455H90.7464V8.18182H87.7635V12.7273H90.7464V24.0909C90.718 28.3665 93.63 30.483 98.0192 30.2983C99.5817 30.2415 100.69 29.929 101.3 29.7301L100.349 25.2273C100.05 25.2841 99.4112 25.4261 98.843 25.4261C97.6357 25.4261 96.7976 24.9716 96.7976 23.2955V12.7273H100.903V8.18182ZM111.364 17.3864C111.379 14.5739 113.097 12.9261 115.569 12.9261C118.026 12.9261 119.475 14.5028 119.461 17.1875V30H125.512V16.108C125.526 10.9943 122.515 7.89773 117.969 7.89773C114.66 7.89773 112.444 9.46023 111.45 12.0312H111.194V0.90909H105.313V30H111.364V17.3864ZM140.217 30.4261C145.615 30.4261 149.251 27.7983 150.104 23.75L144.507 23.3807C143.896 25.0426 142.334 25.9091 140.317 25.9091C137.291 25.9091 135.374 23.9062 135.374 20.6534V20.6392H150.232V18.9773C150.232 11.5625 145.743 7.89773 139.976 7.89773C133.555 7.89773 129.393 12.4574 129.393 19.1903C129.393 26.108 133.499 30.4261 140.217 30.4261ZM135.374 16.8892C135.501 14.4034 137.391 12.4148 140.075 12.4148C142.703 12.4148 144.521 14.2898 144.536 16.8892H135.374ZM154.18 30H160.232V17.6562C160.232 14.9716 162.192 13.125 164.862 13.125C165.7 13.125 166.851 13.267 167.419 13.4517V8.08239C166.879 7.95455 166.126 7.86932 165.516 7.86932C163.072 7.86932 161.07 9.28977 160.274 11.9886H160.047V8.18182H154.18V30ZM179.475 30.4261C184.873 30.4261 188.509 27.7983 189.362 23.75L183.765 23.3807C183.154 25.0426 181.592 25.9091 179.575 25.9091C176.549 25.9091 174.631 23.9062 174.631 20.6534V20.6392H189.489V18.9773C189.489 11.5625 185.001 7.89773 179.234 7.89773C172.813 7.89773 168.651 12.4574 168.651 19.1903C168.651 26.108 172.756 30.4261 179.475 30.4261ZM174.631 16.8892C174.759 14.4034 176.648 12.4148 179.333 12.4148C181.961 12.4148 183.779 14.2898 183.793 16.8892H174.631ZM196.975 30.3693C198.793 30.3693 200.37 28.8494 200.384 26.9602C200.37 25.0994 198.793 23.5795 196.975 23.5795C195.1 23.5795 193.552 25.0994 193.566 26.9602C193.552 28.8494 195.1 30.3693 196.975 30.3693ZM219.507 0.90909H213.357V30H219.507V0.90909ZM229.525 0.90909H224.979V4.00568C224.979 6.40625 224.127 8.15341 223.175 9.65909L225.846 11.2358C227.849 9.55966 229.525 6.5767 229.525 3.97727V0.90909ZM234.141 30H240.192V16.9034C240.192 14.4886 241.727 12.8835 243.744 12.8835C245.732 12.8835 247.067 14.2472 247.067 16.392V30H252.934V16.6761C252.934 14.4176 254.227 12.8835 256.428 12.8835C258.36 12.8835 259.809 14.0909 259.809 16.5199V30H265.846V15.3267C265.846 10.5966 263.033 7.89773 258.971 7.89773C255.775 7.89773 253.289 9.53125 252.394 12.0312H252.167C251.471 9.50284 249.241 7.89773 246.244 7.89773C243.303 7.89773 241.073 9.46023 240.164 12.0312H239.908V8.18182H234.141V30ZM57.4972 52.9091V82H63.4631V62.9943H63.7045L71.233 81.858H75.2955L82.8239 63.0653H83.0653V82H89.0312V52.9091H81.446L73.4347 72.4545H73.0938L65.0824 52.9091H57.4972ZM100.207 82.4119C103.431 82.4119 105.519 81.0057 106.585 78.9744H106.755V82H112.494V67.2841C112.494 62.0852 108.09 59.8977 103.232 59.8977C98.005 59.8977 94.5675 62.3977 93.7294 66.375L99.326 66.8295C99.7379 65.3807 101.031 64.3153 103.204 64.3153C105.263 64.3153 106.442 65.3523 106.442 67.142V67.2273C106.442 68.6335 104.951 68.8182 101.158 69.1875C96.8402 69.5852 92.9624 71.0341 92.9624 75.9062C92.9624 80.2244 96.0447 82.4119 100.207 82.4119ZM101.94 78.2358C100.079 78.2358 98.7436 77.3693 98.7436 75.7074C98.7436 74.0028 100.15 73.1648 102.281 72.8665C103.602 72.6818 105.761 72.3693 106.485 71.8864V74.2017C106.485 76.4886 104.596 78.2358 101.94 78.2358ZM117.188 82H123.239V69.6562C123.239 66.9716 125.2 65.125 127.87 65.125C128.708 65.125 129.859 65.267 130.427 65.4517V60.0824C129.887 59.9545 129.134 59.8693 128.523 59.8693C126.08 59.8693 124.077 61.2898 123.282 63.9886H123.055V60.1818H117.188V82ZM133.555 82H139.607V60.1818H133.555V82ZM136.595 57.3693C138.399 57.3693 139.876 55.9915 139.876 54.3011C139.876 52.625 138.399 51.2472 136.595 51.2472C134.805 51.2472 133.328 52.625 133.328 54.3011C133.328 55.9915 134.805 57.3693 136.595 57.3693ZM150.675 82.4119C153.9 82.4119 155.988 81.0057 157.053 78.9744H157.224V82H162.962V67.2841C162.962 62.0852 158.559 59.8977 153.701 59.8977C148.474 59.8977 145.036 62.3977 144.198 66.375L149.795 66.8295C150.207 65.3807 151.499 64.3153 153.673 64.3153C155.732 64.3153 156.911 65.3523 156.911 67.142V67.2273C156.911 68.6335 155.42 68.8182 151.627 69.1875C147.309 69.5852 143.431 71.0341 143.431 75.9062C143.431 80.2244 146.513 82.4119 150.675 82.4119ZM152.408 78.2358C150.548 78.2358 149.212 77.3693 149.212 75.7074C149.212 74.0028 150.619 73.1648 152.749 72.8665C154.07 72.6818 156.229 72.3693 156.954 71.8864V74.2017C156.954 76.4886 155.065 78.2358 152.408 78.2358ZM173.708 69.3864C173.722 66.5739 175.398 64.9261 177.842 64.9261C180.271 64.9261 181.734 66.517 181.719 69.1875V82H187.771V68.108C187.771 63.0227 184.788 59.8977 180.242 59.8977C177.004 59.8977 174.66 61.4886 173.68 64.0312H173.424V60.1818H167.657V82H173.708V69.3864ZM202.483 82.4261C207.881 82.4261 211.517 79.7983 212.369 75.75L206.773 75.3807C206.162 77.0426 204.599 77.9091 202.582 77.9091C199.557 77.9091 197.639 75.9062 197.639 72.6534V72.6392H212.497V70.9773C212.497 63.5625 208.009 59.8977 202.241 59.8977C195.821 59.8977 191.659 64.4574 191.659 71.1903C191.659 78.108 195.764 82.4261 202.483 82.4261ZM197.639 68.8892C197.767 66.4034 199.656 64.4148 202.341 64.4148C204.969 64.4148 206.787 66.2898 206.801 68.8892H197.639Z" fill="#172B4D"/>
<path d="M6.40163 104.909H0.251065V134H6.40163V104.909ZM16.4194 104.909H11.8739V108.006C11.8739 110.406 11.0217 112.153 10.07 113.659L12.7404 115.236C14.7433 113.56 16.4194 110.577 16.4194 107.977V104.909ZM21.0359 134H27.087V120.903C27.087 118.489 28.6211 116.884 30.6381 116.884C32.6268 116.884 33.962 118.247 33.962 120.392V134H39.8285V120.676C39.8285 118.418 41.1211 116.884 43.3228 116.884C45.2546 116.884 46.7035 118.091 46.7035 120.52V134H52.7404V119.327C52.7404 114.597 49.9279 111.898 45.8654 111.898C42.6694 111.898 40.1836 113.531 39.2887 116.031H39.0614C38.3654 113.503 36.1353 111.898 33.1381 111.898C30.1978 111.898 27.9677 113.46 27.0586 116.031H26.8029V112.182H21.0359V134ZM72.9996 134.412C76.2241 134.412 78.3121 133.006 79.3775 130.974H79.5479V134H85.2866V119.284C85.2866 114.085 80.8832 111.898 76.0252 111.898C70.7979 111.898 67.3604 114.398 66.5224 118.375L72.119 118.83C72.5309 117.381 73.8235 116.315 75.9968 116.315C78.0565 116.315 79.2354 117.352 79.2354 119.142V119.227C79.2354 120.634 77.744 120.818 73.9513 121.188C69.6332 121.585 65.7553 123.034 65.7553 127.906C65.7553 132.224 68.8377 134.412 72.9996 134.412ZM74.7326 130.236C72.8718 130.236 71.5366 129.369 71.5366 127.707C71.5366 126.003 72.9428 125.165 75.0735 124.866C76.3945 124.682 78.5536 124.369 79.2781 123.886V126.202C79.2781 128.489 77.3888 130.236 74.7326 130.236ZM117.392 118.403C116.853 114.384 113.614 111.898 108.103 111.898C102.52 111.898 98.8413 114.483 98.8555 118.688C98.8413 121.955 100.901 124.071 105.162 124.923L108.941 125.676C110.844 126.06 111.711 126.756 111.739 127.849C111.711 129.142 110.304 130.065 108.188 130.065C106.029 130.065 104.594 129.142 104.225 127.366L98.2731 127.679C98.8413 131.855 102.392 134.426 108.174 134.426C113.827 134.426 117.875 131.543 117.89 127.239C117.875 124.085 115.816 122.196 111.583 121.33L107.634 120.534C105.603 120.094 104.85 119.398 104.864 118.347C104.85 117.04 106.327 116.188 108.202 116.188C110.304 116.188 111.554 117.338 111.853 118.744L117.392 118.403ZM131.558 134.426C138.177 134.426 142.297 129.895 142.297 123.176C142.297 116.415 138.177 111.898 131.558 111.898C124.939 111.898 120.819 116.415 120.819 123.176C120.819 129.895 124.939 134.426 131.558 134.426ZM131.586 129.739C128.532 129.739 126.97 126.94 126.97 123.134C126.97 119.327 128.532 116.514 131.586 116.514C134.583 116.514 136.146 119.327 136.146 123.134C136.146 126.94 134.583 129.739 131.586 129.739ZM157.964 112.182H153.632V110.719C153.632 109.241 154.228 108.375 156.004 108.375C156.728 108.375 157.467 108.531 157.95 108.688L159.015 104.142C158.262 103.915 156.6 103.545 154.74 103.545C150.635 103.545 147.581 105.861 147.581 110.605V112.182H144.498V116.727H147.581V134H153.632V116.727H157.964V112.182ZM173.266 112.182H169.161V106.955H163.11V112.182H160.127V116.727H163.11V128.091C163.081 132.366 165.993 134.483 170.382 134.298C171.945 134.241 173.053 133.929 173.664 133.73L172.712 129.227C172.414 129.284 171.775 129.426 171.206 129.426C169.999 129.426 169.161 128.972 169.161 127.295V116.727H173.266V112.182ZM181.512 134H187.904L191.654 120.278H191.924L195.674 134H202.08L208.003 112.182H201.895L198.571 126.756H198.387L194.807 112.182H188.799L185.276 126.841H185.077L181.696 112.182H175.574L181.512 134ZM217.453 134.412C220.677 134.412 222.765 133.006 223.831 130.974H224.001V134H229.74V119.284C229.74 114.085 225.336 111.898 220.478 111.898C215.251 111.898 211.814 114.398 210.975 118.375L216.572 118.83C216.984 117.381 218.277 116.315 220.45 116.315C222.51 116.315 223.689 117.352 223.689 119.142V119.227C223.689 120.634 222.197 120.818 218.404 121.188C214.086 121.585 210.208 123.034 210.208 127.906C210.208 132.224 213.291 134.412 217.453 134.412ZM219.186 130.236C217.325 130.236 215.99 129.369 215.99 127.707C215.99 126.003 217.396 125.165 219.527 124.866C220.848 124.682 223.007 124.369 223.731 123.886V126.202C223.731 128.489 221.842 130.236 219.186 130.236ZM234.434 134H240.485V121.656C240.485 118.972 242.446 117.125 245.116 117.125C245.954 117.125 247.105 117.267 247.673 117.452V112.082C247.133 111.955 246.38 111.869 245.77 111.869C243.326 111.869 241.324 113.29 240.528 115.989H240.301V112.182H234.434V134ZM259.729 134.426C265.127 134.426 268.763 131.798 269.615 127.75L264.019 127.381C263.408 129.043 261.846 129.909 259.828 129.909C256.803 129.909 254.885 127.906 254.885 124.653V124.639H269.743V122.977C269.743 115.562 265.255 111.898 259.488 111.898C253.067 111.898 248.905 116.457 248.905 123.19C248.905 130.108 253.01 134.426 259.729 134.426ZM254.885 120.889C255.013 118.403 256.902 116.415 259.587 116.415C262.215 116.415 264.033 118.29 264.047 120.889H254.885ZM46.6538 186.355C50.1765 186.355 52.0089 184.324 52.8469 182.506H53.1026V186H59.0685V156.909H53.0316V167.847H52.8469C52.0373 166.071 50.2901 163.898 46.6396 163.898C41.8526 163.898 37.8043 167.619 37.8043 175.119C37.8043 182.42 41.6822 186.355 46.6538 186.355ZM48.5714 181.54C45.6026 181.54 43.9833 178.898 43.9833 175.091C43.9833 171.312 45.5742 168.713 48.5714 168.713C51.5117 168.713 53.1594 171.199 53.1594 175.091C53.1594 178.983 51.4833 181.54 48.5714 181.54ZM73.9869 186.426C79.3846 186.426 83.021 183.798 83.8732 179.75L78.2766 179.381C77.6658 181.043 76.1033 181.909 74.0863 181.909C71.0607 181.909 69.1431 179.906 69.1431 176.653V176.639H84.0011V174.977C84.0011 167.562 79.5124 163.898 73.7454 163.898C67.3249 163.898 63.163 168.457 63.163 175.19C63.163 182.108 67.2681 186.426 73.9869 186.426ZM69.1431 172.889C69.271 170.403 71.1602 168.415 73.8448 168.415C76.4727 168.415 78.2908 170.29 78.305 172.889H69.1431ZM107.939 164.182H101.533L97.016 179.793H96.7887L92.2575 164.182H85.8654L93.4933 186H100.311L107.939 164.182ZM120.237 186.426C125.635 186.426 129.271 183.798 130.123 179.75L124.527 179.381C123.916 181.043 122.353 181.909 120.336 181.909C117.311 181.909 115.393 179.906 115.393 176.653V176.639H130.251V174.977C130.251 167.562 125.762 163.898 119.995 163.898C113.575 163.898 109.413 168.457 109.413 175.19C109.413 182.108 113.518 186.426 120.237 186.426ZM115.393 172.889C115.521 170.403 117.41 168.415 120.095 168.415C122.723 168.415 124.541 170.29 124.555 172.889H115.393ZM140.251 156.909H134.2V186H140.251V156.909ZM154.956 186.426C161.576 186.426 165.695 181.895 165.695 175.176C165.695 168.415 161.576 163.898 154.956 163.898C148.337 163.898 144.218 168.415 144.218 175.176C144.218 181.895 148.337 186.426 154.956 186.426ZM154.985 181.739C151.931 181.739 150.368 178.94 150.368 175.134C150.368 171.327 151.931 168.514 154.985 168.514C157.982 168.514 159.544 171.327 159.544 175.134C159.544 178.94 157.982 181.739 154.985 181.739ZM169.63 194.182H175.681V182.506H175.865C176.703 184.324 178.536 186.355 182.059 186.355C187.03 186.355 190.908 182.42 190.908 175.119C190.908 167.619 186.86 163.898 182.073 163.898C178.422 163.898 176.675 166.071 175.865 167.847H175.596V164.182H169.63V194.182ZM175.553 175.091C175.553 171.199 177.201 168.713 180.141 168.713C183.138 168.713 184.729 171.312 184.729 175.091C184.729 178.898 183.11 181.54 180.141 181.54C177.229 181.54 175.553 178.983 175.553 175.091ZM204.885 186.426C210.283 186.426 213.919 183.798 214.772 179.75L209.175 179.381C208.564 181.043 207.002 181.909 204.985 181.909C201.959 181.909 200.042 179.906 200.042 176.653V176.639H214.9V174.977C214.9 167.562 210.411 163.898 204.644 163.898C198.223 163.898 194.061 168.457 194.061 175.19C194.061 182.108 198.167 186.426 204.885 186.426ZM200.042 172.889C200.169 170.403 202.059 168.415 204.743 168.415C207.371 168.415 209.189 170.29 209.203 172.889H200.042ZM218.848 186H224.9V173.656C224.9 170.972 226.86 169.125 229.53 169.125C230.368 169.125 231.519 169.267 232.087 169.452V164.082C231.547 163.955 230.794 163.869 230.184 163.869C227.74 163.869 225.738 165.29 224.942 167.989H224.715V164.182H218.848V186Z" fill="#36B37E"/>
</svg>
